<mxfile host="65bd71144e" modified="2020-12-22T12:35:43.267Z" agent="5.0 (Windows NT 10.0; Win64; x64) AppleWebKit/537.36 (KHTML, like Gecko) Code/1.52.1 Chrome/83.0.4103.122 Electron/9.3.5 Safari/537.36" etag="8YCpDCAAzCYeG42P2Z-5" version="13.10.0" type="embed">
    <diagram id="rRpEIa_KGA2inyHHXqwN" name="design">
        <mxGraphModel dx="771" dy="617" grid="1" gridSize="10" guides="1" tooltips="1" connect="1" arrows="1" fold="1" page="1" pageScale="1" pageWidth="827" pageHeight="1169" background="#FFFFFF" math="0" shadow="0">
            <root>
                <mxCell id="0"/>
                <mxCell id="1" parent="0"/>
                <mxCell id="tU7ouS_0C0mBLxPq2uyY-9" value="" style="rounded=1;whiteSpace=wrap;html=1;fillColor=none;dashed=1;strokeWidth=2;fontSize=20;" parent="1" vertex="1">
                    <mxGeometry x="230" y="140" width="140" height="260" as="geometry"/>
                </mxCell>
                <mxCell id="tU7ouS_0C0mBLxPq2uyY-10" value="" style="rounded=1;whiteSpace=wrap;html=1;fillColor=none;dashed=1;strokeWidth=2;fontSize=20;" parent="1" vertex="1">
                    <mxGeometry x="430" y="140" width="140" height="260" as="geometry"/>
                </mxCell>
                <mxCell id="tU7ouS_0C0mBLxPq2uyY-11" value="" style="rounded=1;whiteSpace=wrap;html=1;fillColor=none;dashed=1;strokeWidth=2;fontSize=20;" parent="1" vertex="1">
                    <mxGeometry x="30" y="140" width="140" height="260" as="geometry"/>
                </mxCell>
                <mxCell id="tU7ouS_0C0mBLxPq2uyY-7" style="edgeStyle=orthogonalEdgeStyle;rounded=0;orthogonalLoop=1;jettySize=auto;html=1;exitX=0.25;exitY=0;exitDx=0;exitDy=0;entryX=0.25;entryY=1;entryDx=0;entryDy=0;endArrow=classic;endFill=1;strokeWidth=2;fontSize=20;" parent="1" source="tU7ouS_0C0mBLxPq2uyY-1" target="tU7ouS_0C0mBLxPq2uyY-2" edge="1">
                    <mxGeometry relative="1" as="geometry"/>
                </mxCell>
                <mxCell id="tU7ouS_0C0mBLxPq2uyY-25" style="edgeStyle=orthogonalEdgeStyle;rounded=0;orthogonalLoop=1;jettySize=auto;html=1;exitX=0.75;exitY=1;exitDx=0;exitDy=0;entryX=0.75;entryY=0;entryDx=0;entryDy=0;startArrow=none;startFill=0;endArrow=classic;endFill=1;strokeWidth=2;fontSize=20;" parent="1" source="tU7ouS_0C0mBLxPq2uyY-1" target="tU7ouS_0C0mBLxPq2uyY-23" edge="1">
                    <mxGeometry relative="1" as="geometry"/>
                </mxCell>
                <mxCell id="tU7ouS_0C0mBLxPq2uyY-1" value="REST服务器" style="rounded=0;whiteSpace=wrap;html=1;fillColor=#d5e8d4;strokeColor=#82b366;strokeWidth=2;fontSize=20;" parent="1" vertex="1">
                    <mxGeometry x="240" y="320" width="120" height="40" as="geometry"/>
                </mxCell>
                <mxCell id="tU7ouS_0C0mBLxPq2uyY-4" style="edgeStyle=orthogonalEdgeStyle;rounded=0;orthogonalLoop=1;jettySize=auto;html=1;exitX=0.25;exitY=0;exitDx=0;exitDy=0;entryX=0.25;entryY=1;entryDx=0;entryDy=0;strokeWidth=2;fontSize=20;" parent="1" source="tU7ouS_0C0mBLxPq2uyY-2" target="tU7ouS_0C0mBLxPq2uyY-3" edge="1">
                    <mxGeometry relative="1" as="geometry"/>
                </mxCell>
                <mxCell id="tU7ouS_0C0mBLxPq2uyY-8" style="edgeStyle=orthogonalEdgeStyle;rounded=0;orthogonalLoop=1;jettySize=auto;html=1;exitX=0.75;exitY=1;exitDx=0;exitDy=0;entryX=0.75;entryY=0;entryDx=0;entryDy=0;endArrow=classic;endFill=1;strokeWidth=2;fontSize=20;" parent="1" source="tU7ouS_0C0mBLxPq2uyY-2" target="tU7ouS_0C0mBLxPq2uyY-1" edge="1">
                    <mxGeometry relative="1" as="geometry"/>
                </mxCell>
                <mxCell id="tU7ouS_0C0mBLxPq2uyY-2" value="键值存储" style="rounded=0;whiteSpace=wrap;html=1;fillColor=#f8cecc;strokeColor=#b85450;strokeWidth=2;fontSize=20;" parent="1" vertex="1">
                    <mxGeometry x="240" y="240" width="120" height="40" as="geometry"/>
                </mxCell>
                <mxCell id="tU7ouS_0C0mBLxPq2uyY-5" style="edgeStyle=orthogonalEdgeStyle;rounded=0;orthogonalLoop=1;jettySize=auto;html=1;exitX=0.75;exitY=1;exitDx=0;exitDy=0;entryX=0.75;entryY=0;entryDx=0;entryDy=0;strokeWidth=2;fontSize=20;" parent="1" source="tU7ouS_0C0mBLxPq2uyY-3" target="tU7ouS_0C0mBLxPq2uyY-2" edge="1">
                    <mxGeometry relative="1" as="geometry"/>
                </mxCell>
                <mxCell id="tU7ouS_0C0mBLxPq2uyY-19" style="edgeStyle=orthogonalEdgeStyle;rounded=0;orthogonalLoop=1;jettySize=auto;html=1;exitX=0;exitY=0.25;exitDx=0;exitDy=0;entryX=1;entryY=0.25;entryDx=0;entryDy=0;startArrow=none;startFill=0;endArrow=classic;endFill=1;strokeWidth=2;fontSize=20;" parent="1" source="tU7ouS_0C0mBLxPq2uyY-3" target="tU7ouS_0C0mBLxPq2uyY-17" edge="1">
                    <mxGeometry relative="1" as="geometry"/>
                </mxCell>
                <mxCell id="tU7ouS_0C0mBLxPq2uyY-21" style="edgeStyle=orthogonalEdgeStyle;rounded=0;orthogonalLoop=1;jettySize=auto;html=1;exitX=1;exitY=0.25;exitDx=0;exitDy=0;entryX=0;entryY=0.25;entryDx=0;entryDy=0;startArrow=none;startFill=0;endArrow=classic;endFill=1;strokeWidth=2;fontSize=20;" parent="1" source="tU7ouS_0C0mBLxPq2uyY-3" target="tU7ouS_0C0mBLxPq2uyY-18" edge="1">
                    <mxGeometry relative="1" as="geometry"/>
                </mxCell>
                <mxCell id="tU7ouS_0C0mBLxPq2uyY-3" value="raft服务器" style="rounded=0;whiteSpace=wrap;html=1;fillColor=#f5f5f5;strokeColor=#666666;fontColor=#333333;strokeWidth=2;fontSize=20;" parent="1" vertex="1">
                    <mxGeometry x="240" y="160" width="120" height="40" as="geometry"/>
                </mxCell>
                <mxCell id="tU7ouS_0C0mBLxPq2uyY-20" style="edgeStyle=orthogonalEdgeStyle;rounded=0;orthogonalLoop=1;jettySize=auto;html=1;exitX=1;exitY=0.75;exitDx=0;exitDy=0;entryX=0;entryY=0.75;entryDx=0;entryDy=0;startArrow=none;startFill=0;endArrow=classic;endFill=1;strokeWidth=2;fontSize=20;" parent="1" source="tU7ouS_0C0mBLxPq2uyY-17" target="tU7ouS_0C0mBLxPq2uyY-3" edge="1">
                    <mxGeometry relative="1" as="geometry"/>
                </mxCell>
                <mxCell id="tU7ouS_0C0mBLxPq2uyY-17" value="" style="rounded=0;whiteSpace=wrap;html=1;strokeColor=#666666;fontColor=#333333;fillColor=none;dashed=1;strokeWidth=2;fontSize=20;" parent="1" vertex="1">
                    <mxGeometry x="40" y="160" width="120" height="40" as="geometry"/>
                </mxCell>
                <mxCell id="tU7ouS_0C0mBLxPq2uyY-22" style="edgeStyle=orthogonalEdgeStyle;rounded=0;orthogonalLoop=1;jettySize=auto;html=1;exitX=0;exitY=0.75;exitDx=0;exitDy=0;entryX=1;entryY=0.75;entryDx=0;entryDy=0;startArrow=none;startFill=0;endArrow=classic;endFill=1;strokeWidth=2;fontSize=20;" parent="1" source="tU7ouS_0C0mBLxPq2uyY-18" target="tU7ouS_0C0mBLxPq2uyY-3" edge="1">
                    <mxGeometry relative="1" as="geometry"/>
                </mxCell>
                <mxCell id="tU7ouS_0C0mBLxPq2uyY-18" value="" style="rounded=0;whiteSpace=wrap;html=1;strokeColor=#666666;fontColor=#333333;fillColor=none;dashed=1;strokeWidth=2;fontSize=20;" parent="1" vertex="1">
                    <mxGeometry x="440" y="160" width="120" height="40" as="geometry"/>
                </mxCell>
                <mxCell id="tU7ouS_0C0mBLxPq2uyY-24" style="edgeStyle=orthogonalEdgeStyle;rounded=0;orthogonalLoop=1;jettySize=auto;html=1;exitX=0.25;exitY=0;exitDx=0;exitDy=0;entryX=0.25;entryY=1;entryDx=0;entryDy=0;startArrow=none;startFill=0;endArrow=classic;endFill=1;strokeWidth=2;fontSize=20;" parent="1" source="tU7ouS_0C0mBLxPq2uyY-23" target="tU7ouS_0C0mBLxPq2uyY-1" edge="1">
                    <mxGeometry relative="1" as="geometry"/>
                </mxCell>
                <mxCell id="tU7ouS_0C0mBLxPq2uyY-23" value="&lt;font color=&quot;#ffffff&quot; style=&quot;font-size: 20px&quot;&gt;curl ... ...&lt;/font&gt;" style="rounded=0;whiteSpace=wrap;html=1;dashed=1;fillColor=#000000;strokeColor=none;align=center;strokeWidth=2;fontSize=20;" parent="1" vertex="1">
                    <mxGeometry x="240" y="440" width="120" height="40" as="geometry"/>
                </mxCell>
            </root>
        </mxGraphModel>
    </diagram>
</mxfile>